<svg width="1105" height="280" viewBox="0 0 1105 280" fill="none" xmlns="http://www.w3.org/2000/svg">
<path d="M42.5833 171.125H13V0.833374H42.5833V171.125Z" fill="white"/>
<path d="M252.457 171.125H223.082V43.4167C223.082 38.1667 222.192 34.698 220.416 33C218.65 31.2917 215.145 30.4375 209.895 30.4375H186.895C181.504 30.4375 177.989 31.2605 176.353 32.8959C174.728 34.5209 173.916 38.0313 173.916 43.4167V171.125H144.541V43.4167C144.541 38.0313 143.228 34.5209 140.603 32.8959C137.978 31.2605 133.968 30.4375 128.582 30.4375H108.353C105.655 30.4375 103.457 30.6198 101.749 30.9792C100.051 31.3282 98.7386 32 97.8115 33C96.8949 33.9896 96.2542 35.3021 95.8949 36.9375C95.5459 38.5625 95.374 40.724 95.374 43.4167V171.125H65.999V43.4167C65.999 29.6563 69.6501 19.224 76.9574 12.125C84.2594 5.03129 94.7282 1.34379 108.353 1.06254C114.739 0.911499 121.338 0.833374 128.145 0.833374C134.963 0.833374 142.416 0.833374 150.499 0.833374C158.582 0.833374 167.447 0.833374 177.103 0.833374C186.754 0.833374 197.687 0.833374 209.895 0.833374C223.655 0.833374 234.192 4.49483 241.499 11.8125C248.801 19.1198 252.457 29.5834 252.457 43.2084V171.125Z" fill="white"/>
<path d="M416.138 171.125V113.646C416.138 108.26 415.315 104.719 413.679 103.021C412.054 101.313 408.471 100.458 402.929 100.458H317.367C314.669 100.458 312.471 100.641 310.763 101C309.065 101.349 307.752 102.021 306.825 103.021C305.908 104.01 305.268 105.354 304.908 107.063C304.559 108.76 304.388 110.953 304.388 113.646V171.125H274.804V43.8333C274.804 30.2083 278.492 19.6771 285.867 12.2292C293.242 4.78646 303.742 1.0625 317.367 1.0625H403.367C417.127 1.0625 427.7 4.75 435.075 12.125C442.46 19.5 446.158 30.0729 446.158 43.8333V171.125H416.138ZM416.138 43.4167C416.138 40.724 415.955 38.5625 415.596 36.9375C415.247 35.3021 414.606 34.0208 413.679 33.1042C412.763 32.1771 411.45 31.5365 409.742 31.1875C408.044 30.8281 405.919 30.6458 403.367 30.6458H317.367C311.976 30.6458 308.429 31.4688 306.721 33.1042C305.023 34.7292 304.179 38.2396 304.179 43.625V58.1042C304.179 60.8021 304.351 63 304.7 64.7083C305.059 66.4063 305.731 67.7188 306.721 68.6458C307.721 69.5625 309.065 70.2031 310.763 70.5625C312.471 70.9115 314.669 71.0833 317.367 71.0833H403.158C405.71 71.0833 407.835 70.9115 409.533 70.5625C411.242 70.2031 412.585 69.5625 413.575 68.6458C414.575 67.7188 415.247 66.4063 415.596 64.7083C415.955 63 416.138 60.8021 416.138 58.1042V43.4167Z" fill="white"/>
<path d="M637.702 128.563C637.702 142.177 634.046 152.677 626.744 160.063C619.436 167.438 608.9 171.125 595.139 171.125H509.785C496.296 171.125 485.869 167.438 478.494 160.063C471.119 152.677 467.431 142.177 467.431 128.563V43.2084C467.431 29.724 471.119 19.2917 478.494 11.9167C485.869 4.53129 496.296 0.833374 509.785 0.833374H633.452V30.2084H509.785C504.395 30.2084 500.879 31.0313 499.244 32.6667C497.619 34.2917 496.806 37.8073 496.806 43.2084V128.563C496.806 133.953 497.619 137.5 499.244 139.208C500.879 140.906 504.395 141.75 509.785 141.75L595.139 142.167C600.525 142.167 604.077 141.323 605.785 139.625C607.494 137.917 608.348 134.37 608.348 128.979V71.5L637.702 71.7292V128.563Z" fill="white"/>
<path d="M689.64 171.125H660.057V0.833374H689.64V171.125Z" fill="white"/>
<path d="M898.452 128.979C898.452 142.469 894.754 152.896 887.368 160.271C879.993 167.646 869.566 171.333 856.097 171.333H833.535C819.91 171.333 809.441 167.682 802.139 160.375C794.832 153.073 791.181 142.604 791.181 128.979V42.5625C791.181 37.0208 790.326 33.4375 788.618 31.8125C786.91 30.1771 783.358 29.3542 777.972 29.3542H755.618C750.228 29.3542 746.681 30.2083 744.972 31.9167C743.274 33.625 742.431 37.1771 742.431 42.5625V171.125H713.056V42.5625C713.056 28.8021 716.707 18.2656 724.014 10.9583C731.316 3.65625 741.853 0 755.618 0H777.972C791.597 0 802.097 3.6875 809.472 11.0625C816.858 18.4375 820.556 28.9375 820.556 42.5625V128.979C820.556 131.677 820.728 133.875 821.077 135.583C821.436 137.281 822.077 138.594 822.993 139.521C823.91 140.438 825.222 141.078 826.931 141.438C828.639 141.786 830.837 141.958 833.535 141.958H856.097C861.483 141.958 864.993 141.146 866.618 139.521C868.254 137.885 869.077 134.37 869.077 128.979V0.625H898.452V128.979Z" fill="white"/>
<path d="M1062.13 171.125V113.646C1062.13 108.26 1061.31 104.719 1059.67 103.021C1058.05 101.313 1054.46 100.458 1048.92 100.458H963.359C960.661 100.458 958.464 100.641 956.755 101C955.057 101.349 953.745 102.021 952.818 103.021C951.901 104.01 951.26 105.354 950.901 107.063C950.552 108.76 950.38 110.953 950.38 113.646V171.125H920.797V43.8333C920.797 30.2083 924.484 19.6771 931.859 12.2292C939.234 4.78646 949.734 1.0625 963.359 1.0625H1049.36C1063.12 1.0625 1073.69 4.75 1081.07 12.125C1088.45 19.5 1092.15 30.0729 1092.15 43.8333V171.125H1062.13ZM1062.13 43.4167C1062.13 40.724 1061.95 38.5625 1061.59 36.9375C1061.24 35.3021 1060.6 34.0208 1059.67 33.1042C1058.76 32.1771 1057.44 31.5365 1055.73 31.1875C1054.04 30.8281 1051.91 30.6458 1049.36 30.6458H963.359C957.969 30.6458 954.422 31.4688 952.714 33.1042C951.016 34.7292 950.172 38.2396 950.172 43.625V58.1042C950.172 60.8021 950.344 63 950.693 64.7083C951.052 66.4063 951.724 67.7188 952.714 68.6458C953.714 69.5625 955.057 70.2031 956.755 70.5625C958.464 70.9115 960.661 71.0833 963.359 71.0833H1049.15C1051.7 71.0833 1053.83 70.9115 1055.53 70.5625C1057.23 70.2031 1058.58 69.5625 1059.57 68.6458C1060.57 67.7188 1061.24 66.4063 1061.59 64.7083C1061.95 63 1062.13 60.8021 1062.13 58.1042V43.4167Z" fill="white"/>
<rect x="13" y="182" width="677" height="30" fill="white"/>
<path d="M714.166 183.141H725.302C727.585 183.141 729.547 183.482 731.188 184.166C732.842 184.85 734.113 185.861 735.002 187.201C735.891 188.541 736.335 190.188 736.335 192.144C736.335 193.743 736.062 195.117 735.515 196.266C734.981 197.4 734.223 198.351 733.238 199.116C732.268 199.868 731.126 200.47 729.813 200.921L727.865 201.946H718.186L718.145 197.147H725.343C726.423 197.147 727.318 196.956 728.029 196.573C728.74 196.19 729.273 195.657 729.629 194.974C729.998 194.29 730.183 193.497 730.183 192.595C730.183 191.638 730.005 190.811 729.649 190.113C729.294 189.416 728.754 188.883 728.029 188.514C727.305 188.145 726.396 187.96 725.302 187.96H720.318V213H714.166V183.141ZM730.859 213L724.051 199.69L730.552 199.649L737.442 212.713V213H730.859ZM768.668 208.201V213H752.775V208.201H768.668ZM754.785 183.141V213H748.632V183.141H754.785ZM766.597 195.302V199.978H752.775V195.302H766.597ZM768.648 183.141V187.96H752.775V183.141H768.648ZM795.362 205.187C795.362 204.653 795.28 204.175 795.116 203.751C794.966 203.313 794.679 202.917 794.255 202.562C793.831 202.192 793.236 201.83 792.471 201.475C791.705 201.119 790.714 200.75 789.497 200.367C788.143 199.93 786.858 199.438 785.641 198.891C784.438 198.344 783.372 197.708 782.442 196.983C781.526 196.245 780.802 195.391 780.268 194.42C779.749 193.449 779.489 192.321 779.489 191.036C779.489 189.792 779.763 188.664 780.309 187.652C780.856 186.627 781.622 185.752 782.606 185.027C783.591 184.289 784.753 183.722 786.093 183.325C787.446 182.929 788.93 182.73 790.543 182.73C792.744 182.73 794.665 183.127 796.306 183.92C797.946 184.713 799.218 185.8 800.12 187.181C801.036 188.562 801.494 190.141 801.494 191.918H795.383C795.383 191.043 795.198 190.277 794.829 189.621C794.474 188.951 793.927 188.425 793.188 188.042C792.464 187.659 791.548 187.468 790.44 187.468C789.374 187.468 788.485 187.632 787.774 187.96C787.063 188.274 786.53 188.705 786.175 189.252C785.819 189.785 785.641 190.387 785.641 191.057C785.641 191.562 785.765 192.021 786.011 192.431C786.27 192.841 786.653 193.224 787.159 193.579C787.665 193.935 788.287 194.27 789.025 194.584C789.764 194.898 790.618 195.206 791.589 195.507C793.216 195.999 794.644 196.553 795.875 197.168C797.119 197.783 798.158 198.474 798.992 199.239C799.826 200.005 800.455 200.873 800.879 201.844C801.303 202.814 801.515 203.915 801.515 205.146C801.515 206.444 801.262 207.606 800.756 208.632C800.25 209.657 799.518 210.525 798.561 211.236C797.604 211.947 796.463 212.487 795.137 212.856C793.81 213.226 792.327 213.41 790.686 213.41C789.21 213.41 787.754 213.219 786.318 212.836C784.883 212.439 783.577 211.845 782.401 211.052C781.239 210.259 780.309 209.247 779.612 208.017C778.915 206.786 778.566 205.33 778.566 203.648H784.739C784.739 204.578 784.883 205.364 785.17 206.007C785.457 206.649 785.86 207.169 786.38 207.565C786.913 207.962 787.542 208.249 788.266 208.427C789.005 208.604 789.811 208.693 790.686 208.693C791.753 208.693 792.628 208.543 793.311 208.242C794.009 207.941 794.521 207.524 794.849 206.991C795.191 206.458 795.362 205.856 795.362 205.187ZM833.294 208.201V213H817.401V208.201H833.294ZM819.41 183.141V213H813.258V183.141H819.41ZM831.223 195.302V199.978H817.401V195.302H831.223ZM833.274 183.141V187.96H817.401V183.141H833.274ZM856.584 188.247L848.463 213H841.921L853.015 183.141H857.178L856.584 188.247ZM863.331 213L855.189 188.247L854.533 183.141H858.737L869.893 213H863.331ZM862.962 201.885V206.704H847.191V201.885H862.962ZM880.222 183.141H891.358C893.641 183.141 895.603 183.482 897.243 184.166C898.898 184.85 900.169 185.861 901.058 187.201C901.946 188.541 902.391 190.188 902.391 192.144C902.391 193.743 902.117 195.117 901.571 196.266C901.037 197.4 900.279 198.351 899.294 199.116C898.323 199.868 897.182 200.47 895.869 200.921L893.921 201.946H884.241L884.2 197.147H891.399C892.479 197.147 893.374 196.956 894.085 196.573C894.796 196.19 895.329 195.657 895.685 194.974C896.054 194.29 896.238 193.497 896.238 192.595C896.238 191.638 896.061 190.811 895.705 190.113C895.35 189.416 894.81 188.883 894.085 188.514C893.361 188.145 892.451 187.96 891.358 187.96H886.374V213H880.222V183.141ZM896.915 213L890.107 199.69L896.608 199.649L903.498 212.713V213H896.915ZM931.997 203.095H938.129C938.006 205.104 937.452 206.889 936.467 208.447C935.497 210.006 934.136 211.223 932.386 212.098C930.65 212.973 928.558 213.41 926.111 213.41C924.197 213.41 922.481 213.082 920.964 212.426C919.446 211.756 918.147 210.799 917.067 209.555C916.001 208.311 915.187 206.807 914.627 205.043C914.066 203.279 913.786 201.304 913.786 199.116V197.045C913.786 194.857 914.073 192.882 914.647 191.118C915.235 189.341 916.069 187.83 917.149 186.586C918.243 185.342 919.548 184.385 921.066 183.715C922.584 183.045 924.279 182.71 926.152 182.71C928.64 182.71 930.739 183.161 932.448 184.063C934.171 184.966 935.504 186.21 936.447 187.796C937.404 189.382 937.978 191.187 938.17 193.21H932.017C931.949 192.007 931.71 190.988 931.299 190.154C930.889 189.307 930.267 188.671 929.433 188.247C928.613 187.81 927.519 187.591 926.152 187.591C925.127 187.591 924.231 187.782 923.465 188.165C922.7 188.548 922.057 189.129 921.538 189.908C921.018 190.688 920.629 191.672 920.369 192.861C920.123 194.037 920 195.418 920 197.004V199.116C920 200.661 920.116 202.021 920.348 203.197C920.581 204.359 920.936 205.344 921.415 206.15C921.907 206.943 922.536 207.545 923.301 207.955C924.081 208.352 925.017 208.55 926.111 208.55C927.396 208.55 928.456 208.345 929.29 207.935C930.124 207.524 930.759 206.916 931.197 206.109C931.648 205.303 931.915 204.298 931.997 203.095ZM969.642 195.302V200.101H954.056V195.302H969.642ZM955.881 183.141V213H949.729V183.141H955.881ZM974.03 183.141V213H967.899V183.141H974.03ZM1024.16 208.201V213H1009.12V208.201H1024.16ZM1011.11 183.141V213H1004.96V183.141H1011.11ZM1047.8 188.247L1039.67 213H1033.13L1044.23 183.141H1048.39L1047.8 188.247ZM1054.54 213L1046.4 188.247L1045.74 183.141H1049.95L1061.1 213H1054.54ZM1054.17 201.885V206.704H1038.4V201.885H1054.17ZM1083.12 199.896H1075.45L1075.41 195.671H1081.85C1082.99 195.671 1083.92 195.527 1084.64 195.24C1085.37 194.939 1085.91 194.509 1086.26 193.948C1086.63 193.374 1086.81 192.677 1086.81 191.856C1086.81 190.927 1086.64 190.175 1086.28 189.601C1085.94 189.026 1085.4 188.609 1084.66 188.35C1083.94 188.09 1083 187.96 1081.85 187.96H1077.59V213H1071.43V183.141H1081.85C1083.59 183.141 1085.14 183.305 1086.51 183.633C1087.89 183.961 1089.06 184.46 1090.01 185.13C1090.97 185.8 1091.7 186.647 1092.21 187.673C1092.71 188.685 1092.97 189.888 1092.97 191.282C1092.97 192.513 1092.69 193.647 1092.13 194.687C1091.58 195.726 1090.71 196.573 1089.52 197.229C1088.35 197.886 1086.81 198.248 1084.91 198.316L1083.12 199.896ZM1082.86 213H1073.77L1076.17 208.201H1082.86C1083.94 208.201 1084.82 208.03 1085.5 207.688C1086.19 207.333 1086.69 206.854 1087.02 206.253C1087.35 205.651 1087.51 204.961 1087.51 204.182C1087.51 203.307 1087.36 202.548 1087.06 201.905C1086.77 201.263 1086.31 200.771 1085.67 200.429C1085.02 200.073 1084.18 199.896 1083.12 199.896H1077.2L1077.24 195.671H1084.62L1086.04 197.332C1087.85 197.305 1089.32 197.626 1090.42 198.296C1091.54 198.952 1092.36 199.807 1092.86 200.859C1093.38 201.912 1093.64 203.04 1093.64 204.243C1093.64 206.157 1093.23 207.771 1092.39 209.083C1091.56 210.382 1090.33 211.359 1088.72 212.016C1087.12 212.672 1085.17 213 1082.86 213Z" fill="white"/>
<path d="M16.0547 231.562V260H14.4727V231.562H16.0547ZM30.3852 231.562H32.0453L43.2953 257.734L54.5453 231.562H56.2055L43.9008 260H42.6703L30.3852 231.562ZM29.8969 231.562H31.3813L31.4789 246.777V260H29.8969V231.562ZM55.2484 231.562H56.7328V260H55.1508V246.777L55.2484 231.562ZM78.8953 232.773L68.7781 260H67.0984L77.782 231.562H79.0906L78.8953 232.773ZM88.4656 260L78.368 232.773L78.1727 231.562H79.4617L90.1648 260H88.4656ZM85.9656 250.254V251.719H71.3758V250.254H85.9656ZM120.198 246.855V256.816C119.886 257.259 119.32 257.76 118.499 258.32C117.692 258.88 116.618 259.368 115.277 259.785C113.935 260.189 112.314 260.391 110.413 260.391C108.773 260.391 107.269 260.091 105.902 259.492C104.547 258.893 103.376 258.034 102.386 256.914C101.396 255.781 100.628 254.44 100.081 252.891C99.5474 251.328 99.2805 249.596 99.2805 247.695V243.516C99.2805 241.654 99.5344 239.974 100.042 238.477C100.563 236.966 101.299 235.664 102.249 234.57C103.2 233.477 104.333 232.637 105.648 232.051C106.976 231.465 108.447 231.172 110.062 231.172C112.145 231.172 113.896 231.536 115.316 232.266C116.748 232.982 117.868 233.958 118.675 235.195C119.482 236.432 119.977 237.826 120.159 239.375H118.577C118.382 238.177 117.972 237.07 117.347 236.055C116.735 235.026 115.836 234.199 114.652 233.574C113.467 232.936 111.937 232.617 110.062 232.617C108.642 232.617 107.366 232.884 106.234 233.418C105.101 233.939 104.131 234.681 103.323 235.645C102.529 236.608 101.917 237.754 101.488 239.082C101.071 240.41 100.863 241.875 100.863 243.477V247.695C100.863 249.362 101.084 250.885 101.527 252.266C101.982 253.633 102.627 254.818 103.46 255.82C104.307 256.823 105.316 257.598 106.488 258.145C107.672 258.678 108.981 258.945 110.413 258.945C111.924 258.945 113.239 258.796 114.359 258.496C115.491 258.197 116.409 257.839 117.113 257.422C117.829 256.992 118.33 256.595 118.616 256.23V248.32H110.335V246.855H120.198ZM135.252 231.562V260H133.67V231.562H135.252ZM169.855 231.562V260H168.273L150.695 234.277V260H149.094V231.562H150.695L168.273 257.246V231.562H169.855ZM203.288 246.855V256.816C202.975 257.259 202.409 257.76 201.588 258.32C200.781 258.88 199.707 259.368 198.366 259.785C197.024 260.189 195.403 260.391 193.502 260.391C191.862 260.391 190.358 260.091 188.991 259.492C187.636 258.893 186.465 258.034 185.475 256.914C184.485 255.781 183.717 254.44 183.17 252.891C182.636 251.328 182.37 249.596 182.37 247.695V243.516C182.37 241.654 182.623 239.974 183.131 238.477C183.652 236.966 184.388 235.664 185.338 234.57C186.289 233.477 187.422 232.637 188.737 232.051C190.065 231.465 191.536 231.172 193.151 231.172C195.234 231.172 196.985 231.536 198.405 232.266C199.837 232.982 200.957 233.958 201.764 235.195C202.571 236.432 203.066 237.826 203.248 239.375H201.666C201.471 238.177 201.061 237.07 200.436 236.055C199.824 235.026 198.926 234.199 197.741 233.574C196.556 232.936 195.026 232.617 193.151 232.617C191.732 232.617 190.455 232.884 189.323 233.418C188.19 233.939 187.22 234.681 186.413 235.645C185.618 236.608 185.006 237.754 184.577 239.082C184.16 240.41 183.952 241.875 183.952 243.477V247.695C183.952 249.362 184.173 250.885 184.616 252.266C185.071 253.633 185.716 254.818 186.549 255.82C187.396 256.823 188.405 257.598 189.577 258.145C190.761 258.678 192.07 258.945 193.502 258.945C195.013 258.945 196.328 258.796 197.448 258.496C198.58 258.197 199.498 257.839 200.202 257.422C200.918 256.992 201.419 256.595 201.705 256.23V248.32H193.424V246.855H203.288ZM217.149 256.66V259.297C217.149 260.495 216.934 261.589 216.505 262.578C216.088 263.581 215.528 264.427 214.825 265.117L213.848 264.336C214.239 263.815 214.565 263.301 214.825 262.793C215.098 262.285 215.3 261.751 215.43 261.191C215.561 260.632 215.626 260.02 215.626 259.355V256.66H217.149ZM264.736 246.855V256.816C264.423 257.259 263.857 257.76 263.037 258.32C262.229 258.88 261.155 259.368 259.814 259.785C258.473 260.189 256.852 260.391 254.951 260.391C253.31 260.391 251.806 260.091 250.439 259.492C249.085 258.893 247.913 258.034 246.923 256.914C245.934 255.781 245.166 254.44 244.619 252.891C244.085 251.328 243.818 249.596 243.818 247.695V243.516C243.818 241.654 244.072 239.974 244.58 238.477C245.101 236.966 245.836 235.664 246.787 234.57C247.737 233.477 248.87 232.637 250.185 232.051C251.513 231.465 252.985 231.172 254.599 231.172C256.683 231.172 258.434 231.536 259.853 232.266C261.285 232.982 262.405 233.958 263.212 235.195C264.02 236.432 264.515 237.826 264.697 239.375H263.115C262.92 238.177 262.509 237.07 261.884 236.055C261.272 235.026 260.374 234.199 259.189 233.574C258.004 232.936 256.474 232.617 254.599 232.617C253.18 232.617 251.904 232.884 250.771 233.418C249.638 233.939 248.668 234.681 247.861 235.645C247.067 236.608 246.455 237.754 246.025 239.082C245.608 240.41 245.4 241.875 245.4 243.477V247.695C245.4 249.362 245.621 250.885 246.064 252.266C246.52 253.633 247.164 254.818 247.998 255.82C248.844 256.823 249.853 257.598 251.025 258.145C252.21 258.678 253.518 258.945 254.951 258.945C256.461 258.945 257.776 258.796 258.896 258.496C260.029 258.197 260.947 257.839 261.65 257.422C262.366 256.992 262.867 256.595 263.154 256.23V248.32H254.873V246.855H264.736ZM277.445 231.562H286.566C288.441 231.562 290.089 231.882 291.508 232.52C292.927 233.158 294.034 234.089 294.828 235.312C295.635 236.536 296.039 238.04 296.039 239.824C296.039 241.191 295.746 242.428 295.16 243.535C294.574 244.642 293.78 245.56 292.777 246.289C291.775 247.005 290.642 247.474 289.379 247.695L288.695 247.949H278.207L278.168 246.504H287.367C288.943 246.504 290.251 246.185 291.293 245.547C292.348 244.909 293.135 244.082 293.656 243.066C294.19 242.038 294.457 240.957 294.457 239.824C294.457 238.405 294.138 237.194 293.5 236.191C292.875 235.176 291.97 234.395 290.785 233.848C289.613 233.288 288.207 233.008 286.566 233.008H279.027V260H277.445V231.562ZM295.551 260L287.934 247.383L289.691 247.363L297.23 259.727V260H295.551ZM317.655 232.773L307.538 260H305.858L316.541 231.562H317.85L317.655 232.773ZM327.225 260L317.127 232.773L316.932 231.562H318.221L328.924 260H327.225ZM324.725 250.254V251.719H310.135V250.254H324.725ZM348.157 248.164H339.72V246.719H348.157C349.98 246.719 351.464 246.419 352.61 245.82C353.756 245.208 354.589 244.395 355.11 243.379C355.644 242.35 355.911 241.217 355.911 239.98C355.911 238.704 355.644 237.539 355.11 236.484C354.589 235.43 353.756 234.59 352.61 233.965C351.464 233.327 349.98 233.008 348.157 233.008H340.54V260H338.958V231.562H348.157C350.201 231.562 351.914 231.914 353.294 232.617C354.687 233.32 355.735 234.303 356.438 235.566C357.141 236.816 357.493 238.275 357.493 239.941C357.493 241.634 357.141 243.099 356.438 244.336C355.735 245.56 354.694 246.504 353.313 247.168C351.933 247.832 350.214 248.164 348.157 248.164ZM388.269 244.629V246.094H369.851V244.629H388.269ZM370.398 231.562V260H368.816V231.562H370.398ZM389.402 231.562V260H387.82V231.562H389.402ZM404.845 231.562V260H403.263V231.562H404.845ZM436.754 251.23H438.336C438.141 253.223 437.607 254.902 436.734 256.27C435.862 257.624 434.69 258.652 433.219 259.355C431.76 260.046 430.042 260.391 428.062 260.391C426.487 260.391 425.055 260.091 423.766 259.492C422.49 258.88 421.389 258.021 420.465 256.914C419.553 255.794 418.85 254.46 418.355 252.91C417.861 251.361 417.613 249.648 417.613 247.773V243.789C417.613 241.901 417.861 240.189 418.355 238.652C418.85 237.103 419.553 235.775 420.465 234.668C421.389 233.548 422.496 232.689 423.785 232.09C425.087 231.478 426.539 231.172 428.141 231.172C430.081 231.172 431.78 231.517 433.238 232.207C434.697 232.897 435.862 233.926 436.734 235.293C437.607 236.647 438.141 238.32 438.336 240.312H436.754C436.559 238.659 436.109 237.266 435.406 236.133C434.716 234.987 433.766 234.115 432.555 233.516C431.344 232.917 429.872 232.617 428.141 232.617C426.773 232.617 425.543 232.884 424.449 233.418C423.355 233.939 422.418 234.694 421.637 235.684C420.855 236.66 420.25 237.832 419.82 239.199C419.404 240.553 419.195 242.07 419.195 243.75V247.773C419.195 249.427 419.404 250.944 419.82 252.324C420.237 253.691 420.829 254.87 421.598 255.859C422.366 256.836 423.297 257.598 424.391 258.145C425.484 258.678 426.708 258.945 428.062 258.945C429.794 258.945 431.272 258.672 432.496 258.125C433.72 257.565 434.684 256.712 435.387 255.566C436.103 254.421 436.559 252.975 436.754 251.23ZM466.885 253.105C466.885 252.259 466.742 251.504 466.455 250.84C466.169 250.163 465.694 249.564 465.03 249.043C464.379 248.509 463.519 248.014 462.452 247.559C461.384 247.103 460.069 246.66 458.506 246.23C457.074 245.84 455.778 245.417 454.62 244.961C453.474 244.492 452.491 243.958 451.67 243.359C450.863 242.76 450.245 242.051 449.815 241.23C449.385 240.397 449.17 239.414 449.17 238.281C449.17 237.188 449.405 236.204 449.873 235.332C450.342 234.46 451 233.717 451.846 233.105C452.705 232.48 453.708 232.005 454.854 231.68C456.013 231.341 457.276 231.172 458.643 231.172C460.557 231.172 462.23 231.536 463.663 232.266C465.095 232.982 466.215 233.978 467.022 235.254C467.829 236.517 468.233 237.969 468.233 239.609H466.651C466.651 238.268 466.319 237.07 465.655 236.016C465.004 234.961 464.079 234.134 462.881 233.535C461.696 232.923 460.284 232.617 458.643 232.617C456.95 232.617 455.511 232.878 454.327 233.398C453.155 233.919 452.263 234.609 451.651 235.469C451.052 236.315 450.752 237.24 450.752 238.242C450.752 238.958 450.883 239.629 451.143 240.254C451.416 240.879 451.859 241.452 452.471 241.973C453.096 242.493 453.936 242.988 454.991 243.457C456.058 243.913 457.386 244.355 458.975 244.785C460.433 245.163 461.742 245.592 462.901 246.074C464.073 246.543 465.075 247.096 465.909 247.734C466.742 248.372 467.38 249.128 467.823 250C468.265 250.872 468.487 251.895 468.487 253.066C468.487 254.225 468.239 255.26 467.745 256.172C467.25 257.07 466.56 257.839 465.674 258.477C464.802 259.102 463.773 259.577 462.588 259.902C461.416 260.228 460.153 260.391 458.799 260.391C457.562 260.391 456.319 260.241 455.069 259.941C453.832 259.642 452.699 259.16 451.67 258.496C450.642 257.832 449.815 256.96 449.19 255.879C448.565 254.798 448.252 253.483 448.252 251.934H449.834C449.834 253.262 450.108 254.382 450.655 255.293C451.202 256.191 451.918 256.908 452.803 257.441C453.689 257.975 454.652 258.359 455.694 258.594C456.748 258.828 457.784 258.945 458.799 258.945C460.388 258.945 461.788 258.704 462.998 258.223C464.222 257.728 465.173 257.044 465.85 256.172C466.54 255.286 466.885 254.264 466.885 253.105ZM503.378 232.773L493.261 260H491.581L502.265 231.562H503.573L503.378 232.773ZM512.948 260L502.851 232.773L502.655 231.562H503.945L514.648 260H512.948ZM510.448 250.254V251.719H495.859V250.254H510.448ZM545.443 231.562V260H543.861L526.283 234.277V260H524.681V231.562H526.283L543.861 257.246V231.562H545.443ZM566.473 260H559.734L559.773 258.555H566.473C568.517 258.555 570.314 258.079 571.863 257.129C573.426 256.178 574.65 254.863 575.535 253.184C576.421 251.491 576.863 249.544 576.863 247.344V244.16C576.863 242.52 576.609 241.016 576.102 239.648C575.594 238.281 574.878 237.103 573.953 236.113C573.042 235.124 571.954 234.362 570.691 233.828C569.428 233.281 568.048 233.008 566.551 233.008H559.617V231.562H566.551C568.257 231.562 569.832 231.868 571.277 232.48C572.736 233.079 573.999 233.939 575.066 235.059C576.134 236.165 576.961 237.5 577.547 239.062C578.146 240.612 578.445 242.331 578.445 244.219V247.344C578.445 249.232 578.146 250.957 577.547 252.52C576.961 254.069 576.128 255.404 575.047 256.523C573.979 257.63 572.716 258.49 571.258 259.102C569.812 259.701 568.217 260 566.473 260ZM560.223 231.562V260H558.641V231.562H560.223ZM607.966 231.562V260H606.384V231.562H607.966ZM642.57 231.562V260H640.987L623.409 234.277V260H621.808V231.562H623.409L640.987 257.246V231.562H642.57ZM664.127 231.562V260H662.564V231.562H664.127ZM674.244 231.562V233.008H652.447V231.562H674.244ZM702.148 258.555V260H685.566V258.555H702.148ZM686.27 231.562V260H684.688V231.562H686.27ZM700.156 244.629V246.094H685.566V244.629H700.156ZM702.109 231.562V233.008H685.566V231.562H702.109ZM729.037 258.555V260H713.959V258.555H729.037ZM714.662 231.562V260H713.061V231.562H714.662ZM755.458 258.555V260H740.38V258.555H755.458ZM741.083 231.562V260H739.481V231.562H741.083ZM768.167 231.562V260H766.585V231.562H768.167ZM802.244 246.855V256.816C801.931 257.259 801.365 257.76 800.545 258.32C799.737 258.88 798.663 259.368 797.322 259.785C795.981 260.189 794.36 260.391 792.459 260.391C790.818 260.391 789.314 260.091 787.947 259.492C786.593 258.893 785.421 258.034 784.431 256.914C783.442 255.781 782.673 254.44 782.127 252.891C781.593 251.328 781.326 249.596 781.326 247.695V243.516C781.326 241.654 781.58 239.974 782.088 238.477C782.608 236.966 783.344 235.664 784.295 234.57C785.245 233.477 786.378 232.637 787.693 232.051C789.021 231.465 790.492 231.172 792.107 231.172C794.19 231.172 795.942 231.536 797.361 232.266C798.793 232.982 799.913 233.958 800.72 235.195C801.528 236.432 802.022 237.826 802.205 239.375H800.623C800.427 238.177 800.017 237.07 799.392 236.055C798.78 235.026 797.882 234.199 796.697 233.574C795.512 232.936 793.982 232.617 792.107 232.617C790.688 232.617 789.412 232.884 788.279 233.418C787.146 233.939 786.176 234.681 785.369 235.645C784.575 236.608 783.963 237.754 783.533 239.082C783.116 240.41 782.908 241.875 782.908 243.477V247.695C782.908 249.362 783.129 250.885 783.572 252.266C784.028 253.633 784.672 254.818 785.505 255.82C786.352 256.823 787.361 257.598 788.533 258.145C789.718 258.678 791.026 258.945 792.459 258.945C793.969 258.945 795.284 258.796 796.404 258.496C797.537 258.197 798.455 257.839 799.158 257.422C799.874 256.992 800.375 256.595 800.662 256.23V248.32H792.38V246.855H802.244ZM832.492 258.555V260H815.91V258.555H832.492ZM816.613 231.562V260H815.031V231.562H816.613ZM830.5 244.629V246.094H815.91V244.629H830.5ZM832.453 231.562V233.008H815.91V231.562H832.453ZM864.166 231.562V260H862.584L845.006 234.277V260H843.405V231.562H845.006L862.584 257.246V231.562H864.166ZM885.723 231.562V260H884.161V231.562H885.723ZM895.841 231.562V233.008H874.044V231.562H895.841ZM929.384 232.773L919.267 260H917.588L928.271 231.562H929.58L929.384 232.773ZM938.955 260L928.857 232.773L928.662 231.562H929.951L940.654 260H938.955ZM936.455 250.254V251.719H921.865V250.254H936.455ZM970.688 246.855V256.816C970.375 257.259 969.809 257.76 968.988 258.32C968.181 258.88 967.107 259.368 965.766 259.785C964.424 260.189 962.803 260.391 960.902 260.391C959.262 260.391 957.758 260.091 956.391 259.492C955.036 258.893 953.865 258.034 952.875 256.914C951.885 255.781 951.117 254.44 950.57 252.891C950.036 251.328 949.77 249.596 949.77 247.695V243.516C949.77 241.654 950.023 239.974 950.531 238.477C951.052 236.966 951.788 235.664 952.738 234.57C953.689 233.477 954.822 232.637 956.137 232.051C957.465 231.465 958.936 231.172 960.551 231.172C962.634 231.172 964.385 231.536 965.805 232.266C967.237 232.982 968.357 233.958 969.164 235.195C969.971 236.432 970.466 237.826 970.648 239.375H969.066C968.871 238.177 968.461 237.07 967.836 236.055C967.224 235.026 966.326 234.199 965.141 233.574C963.956 232.936 962.426 232.617 960.551 232.617C959.132 232.617 957.855 232.884 956.723 233.418C955.59 233.939 954.62 234.681 953.812 235.645C953.018 236.608 952.406 237.754 951.977 239.082C951.56 240.41 951.352 241.875 951.352 243.477V247.695C951.352 249.362 951.573 250.885 952.016 252.266C952.471 253.633 953.116 254.818 953.949 255.82C954.796 256.823 955.805 257.598 956.977 258.145C958.161 258.678 959.47 258.945 960.902 258.945C962.413 258.945 963.728 258.796 964.848 258.496C965.98 258.197 966.898 257.839 967.602 257.422C968.318 256.992 968.819 256.595 969.105 256.23V248.32H960.824V246.855H970.688ZM1000.94 258.555V260H984.354V258.555H1000.94ZM985.057 231.562V260H983.475V231.562H985.057ZM998.944 244.629V246.094H984.354V244.629H998.944ZM1000.9 231.562V233.008H984.354V231.562H1000.9ZM1032.61 231.562V260H1031.03L1013.45 234.277V260H1011.85V231.562H1013.45L1031.03 257.246V231.562H1032.61ZM1054.17 231.562V260H1052.6V231.562H1054.17ZM1064.28 231.562V233.008H1042.49V231.562H1064.28ZM1091.08 253.105C1091.08 252.259 1090.93 251.504 1090.65 250.84C1090.36 250.163 1089.88 249.564 1089.22 249.043C1088.57 248.509 1087.71 248.014 1086.64 247.559C1085.57 247.103 1084.26 246.66 1082.7 246.23C1081.26 245.84 1079.97 245.417 1078.81 244.961C1077.66 244.492 1076.68 243.958 1075.86 243.359C1075.05 242.76 1074.44 242.051 1074.01 241.23C1073.58 240.397 1073.36 239.414 1073.36 238.281C1073.36 237.188 1073.6 236.204 1074.06 235.332C1074.53 234.46 1075.19 233.717 1076.04 233.105C1076.9 232.48 1077.9 232.005 1079.04 231.68C1080.2 231.341 1081.47 231.172 1082.83 231.172C1084.75 231.172 1086.42 231.536 1087.85 232.266C1089.29 232.982 1090.41 233.978 1091.21 235.254C1092.02 236.517 1092.42 237.969 1092.42 239.609H1090.84C1090.84 238.268 1090.51 237.07 1089.85 236.016C1089.19 234.961 1088.27 234.134 1087.07 233.535C1085.89 232.923 1084.47 232.617 1082.83 232.617C1081.14 232.617 1079.7 232.878 1078.52 233.398C1077.35 233.919 1076.45 234.609 1075.84 235.469C1075.24 236.315 1074.94 237.24 1074.94 238.242C1074.94 238.958 1075.07 239.629 1075.33 240.254C1075.61 240.879 1076.05 241.452 1076.66 241.973C1077.29 242.493 1078.13 242.988 1079.18 243.457C1080.25 243.913 1081.58 244.355 1083.17 244.785C1084.62 245.163 1085.93 245.592 1087.09 246.074C1088.26 246.543 1089.27 247.096 1090.1 247.734C1090.93 248.372 1091.57 249.128 1092.01 250C1092.46 250.872 1092.68 251.895 1092.68 253.066C1092.68 254.225 1092.43 255.26 1091.94 256.172C1091.44 257.07 1090.75 257.839 1089.86 258.477C1088.99 259.102 1087.96 259.577 1086.78 259.902C1085.61 260.228 1084.34 260.391 1082.99 260.391C1081.75 260.391 1080.51 260.241 1079.26 259.941C1078.02 259.642 1076.89 259.16 1075.86 258.496C1074.83 257.832 1074.01 256.96 1073.38 255.879C1072.76 254.798 1072.44 253.483 1072.44 251.934H1074.03C1074.03 253.262 1074.3 254.382 1074.85 255.293C1075.39 256.191 1076.11 256.908 1076.99 257.441C1077.88 257.975 1078.84 258.359 1079.88 258.594C1080.94 258.828 1081.97 258.945 1082.99 258.945C1084.58 258.945 1085.98 258.704 1087.19 258.223C1088.41 257.728 1089.36 257.044 1090.04 256.172C1090.73 255.286 1091.08 254.264 1091.08 253.105Z" fill="white"/>
</svg>
